<svg width="38" height="35" viewBox="0 0 38 35" fill="none" xmlns="http://www.w3.org/2000/svg">
<g clip-path="url(#clip0_1_17)">
<path d="M9.3607 5.05794C8.64132 1.49987 13.2446 -0.564947 15.4235 2.33844V2.33844C16.8357 4.22013 19.6849 4.13762 20.9858 2.17737V2.17737C22.9931 -0.847245 27.7082 0.94773 27.1959 4.54146V4.54146C26.8639 6.87057 28.9369 8.82693 31.2429 8.3607V8.3607C34.801 7.64133 36.8658 12.2446 33.9624 14.4235V14.4235C32.0807 15.8357 32.1632 18.6849 34.1235 19.9858V19.9858C37.1481 21.9931 35.3531 26.7082 31.7594 26.1959V26.1959C29.4303 25.8639 27.4739 27.9369 27.9402 30.2429V30.2429C28.6595 33.801 24.0562 35.8658 21.8773 32.9624V32.9624C20.4652 31.0807 17.6159 31.1632 16.315 33.1235V33.1235C14.3078 36.1481 9.5927 34.3531 10.105 30.7594V30.7594C10.437 28.4303 8.36393 26.4739 6.05794 26.9402V26.9402C2.49987 27.6595 0.435051 23.0562 3.33844 20.8773V20.8773C5.22013 19.4652 5.13762 16.6159 3.17736 15.315V15.315C0.152754 13.3078 1.94773 8.5927 5.54146 9.10497V9.10497C7.87057 9.43698 9.82693 7.36393 9.3607 5.05794V5.05794Z" fill="#F20F25"/>
<path d="M22.52 17.82H23.96V26.6H22.52V17.82ZM22.36 8.14L23.8 8.7C23.5067 9.18 23.1933 9.68 22.86 10.2C22.5267 10.72 22.1867 11.2267 21.84 11.72C21.5067 12.2 21.1867 12.62 20.88 12.98L19.84 12.5C20.12 12.1133 20.4133 11.6667 20.72 11.16C21.04 10.6533 21.34 10.1333 21.62 9.6C21.9133 9.06667 22.16 8.58 22.36 8.14ZM25.08 10.44L26.5 11.06C25.9667 11.8333 25.3733 12.6533 24.72 13.52C24.08 14.3733 23.4267 15.2 22.76 16C22.1067 16.7867 21.4867 17.48 20.9 18.08L19.82 17.48C20.26 17.0267 20.72 16.5133 21.2 15.94C21.68 15.3533 22.1533 14.74 22.62 14.1C23.1 13.46 23.5467 12.8267 23.96 12.2C24.3867 11.5733 24.76 10.9867 25.08 10.44ZM18.62 12.22L19.38 11.26C19.82 11.58 20.2667 11.9467 20.72 12.36C21.1733 12.7733 21.5933 13.18 21.98 13.58C22.3667 13.98 22.6733 14.34 22.9 14.66L22.12 15.8C21.88 15.4667 21.5667 15.0867 21.18 14.66C20.7933 14.2333 20.38 13.8133 19.94 13.4C19.5 12.9733 19.06 12.58 18.62 12.22ZM24.52 14.98L25.66 14.42C26.0333 14.8733 26.3933 15.36 26.74 15.88C27.0867 16.4 27.4 16.9133 27.68 17.42C27.96 17.9133 28.1733 18.3667 28.32 18.78L27.1 19.42C26.9667 19.02 26.7667 18.5667 26.5 18.06C26.2333 17.54 25.9267 17.0133 25.58 16.48C25.2333 15.9467 24.88 15.4467 24.52 14.98ZM18.7 17.12C19.38 17.0933 20.16 17.0667 21.04 17.04C21.9333 17.0133 22.88 16.98 23.88 16.94C24.88 16.8867 25.8867 16.8333 26.9 16.78L26.88 18.14C25.44 18.22 24.0133 18.3 22.6 18.38C21.1867 18.4467 19.9467 18.5067 18.88 18.56L18.7 17.12ZM24.8 20.2L26.04 19.74C26.3467 20.2333 26.6467 20.7667 26.94 21.34C27.2467 21.9133 27.5267 22.4733 27.78 23.02C28.0333 23.5667 28.2267 24.0533 28.36 24.48L27.04 25.02C26.9067 24.5933 26.72 24.1 26.48 23.54C26.2533 22.98 25.9933 22.4067 25.7 21.82C25.4067 21.2333 25.1067 20.6933 24.8 20.2ZM20.16 19.84L21.56 20.12C21.32 21.0667 21.0067 21.98 20.62 22.86C20.2467 23.7267 19.84 24.4667 19.4 25.08C19.3067 25 19.18 24.92 19.02 24.84C18.86 24.76 18.7 24.6867 18.54 24.62C18.38 24.54 18.2333 24.48 18.1 24.44C18.58 23.8533 18.9933 23.1533 19.34 22.34C19.6867 21.5267 19.96 20.6933 20.16 19.84ZM13.6 17.78H15V26.6H13.6V17.78ZM13.34 8.16L14.78 8.72C14.4867 9.18667 14.1733 9.68667 13.84 10.22C13.52 10.74 13.1933 11.24 12.86 11.72C12.54 12.2 12.2333 12.62 11.94 12.98L10.9 12.52C11.18 12.1333 11.4733 11.6867 11.78 11.18C12.0867 10.6733 12.3733 10.1533 12.64 9.62C12.92 9.08667 13.1533 8.6 13.34 8.16ZM15.86 10.4L17.24 11.02C16.7467 11.78 16.1933 12.5867 15.58 13.44C14.98 14.28 14.3667 15.0933 13.74 15.88C13.1267 16.6667 12.54 17.3533 11.98 17.94L10.98 17.36C11.38 16.9067 11.8 16.3933 12.24 15.82C12.6933 15.2467 13.14 14.6467 13.58 14.02C14.02 13.3933 14.4333 12.7667 14.82 12.14C15.2067 11.5133 15.5533 10.9333 15.86 10.4ZM9.76 12.34L10.48 11.34C10.9067 11.66 11.3333 12.02 11.76 12.42C12.2 12.8067 12.6067 13.2 12.98 13.6C13.3533 13.9867 13.6467 14.34 13.86 14.66L13.08 15.84C12.8667 15.5067 12.5733 15.1333 12.2 14.72C11.84 14.3067 11.44 13.8933 11 13.48C10.5733 13.0533 10.16 12.6733 9.76 12.34ZM15.4 15.16L16.54 14.62C16.8333 15.06 17.12 15.5333 17.4 16.04C17.6933 16.5467 17.9533 17.04 18.18 17.52C18.4067 18 18.5733 18.4267 18.68 18.8L17.48 19.44C17.36 19.0533 17.1933 18.6133 16.98 18.12C16.7667 17.6267 16.52 17.12 16.24 16.6C15.96 16.08 15.68 15.6 15.4 15.16ZM9.74 17.1C10.3933 17.0867 11.1333 17.0733 11.96 17.06C12.8 17.0333 13.6933 17.0067 14.64 16.98C15.5867 16.9533 16.54 16.9267 17.5 16.9L17.46 18.22C16.1 18.2867 14.7533 18.3467 13.42 18.4C12.0867 18.44 10.9067 18.4733 9.88 18.5L9.74 17.1ZM15.84 20.12L17.02 19.7C17.3267 20.2333 17.62 20.8133 17.9 21.44C18.18 22.0667 18.3867 22.6067 18.52 23.06L17.24 23.54C17.12 23.0867 16.92 22.54 16.64 21.9C16.3733 21.2467 16.1067 20.6533 15.84 20.12ZM11.18 19.68L12.54 19.9C12.3933 20.8733 12.1733 21.8133 11.88 22.72C11.6 23.6133 11.2667 24.3733 10.88 25C10.7867 24.9467 10.66 24.8867 10.5 24.82C10.34 24.74 10.18 24.6667 10.02 24.6C9.86 24.5333 9.71333 24.48 9.58 24.44C9.99333 23.84 10.3267 23.12 10.58 22.28C10.8333 21.44 11.0333 20.5733 11.18 19.68Z" fill="#FFE1E1"/>
</g>
<defs>
<clipPath id="clip0_1_17">
<rect width="38" height="35" fill="white"/>
</clipPath>
</defs>
</svg>
