<svg width="85" height="37" viewBox="0 0 85 37" fill="none" xmlns="http://www.w3.org/2000/svg">
<g clip-path="url(#clip0_1_2)">
<path d="M9.3607 6.05794C8.64132 2.49987 13.2446 0.435053 15.4235 3.33844V3.33844C16.8357 5.22013 19.6849 5.13762 20.9858 3.17737V3.17737C22.9931 0.152755 27.7082 1.94773 27.1959 5.54146V5.54146C26.8639 7.87057 28.9369 9.82693 31.2429 9.3607V9.3607C34.801 8.64133 36.8658 13.2446 33.9624 15.4235V15.4235C32.0807 16.8357 32.1632 19.6849 34.1235 20.9858V20.9858C37.1481 22.9931 35.3531 27.7082 31.7594 27.1959V27.1959C29.4303 26.8639 27.4739 28.9369 27.9402 31.2429V31.2429C28.6595 34.801 24.0562 36.8658 21.8773 33.9624V33.9624C20.4652 32.0807 17.6159 32.1632 16.315 34.1235V34.1235C14.3078 37.1481 9.5927 35.3531 10.105 31.7594V31.7594C10.437 29.4303 8.36393 27.4739 6.05794 27.9402V27.9402C2.49987 28.6595 0.435051 24.0562 3.33844 21.8773V21.8773C5.22013 20.4652 5.13762 17.6159 3.17736 16.315V16.315C0.152754 14.3078 1.94773 9.5927 5.54146 10.105V10.105C7.87057 10.437 9.82693 8.36393 9.3607 6.05794V6.05794Z" fill="#F20F25"/>
<path d="M22.52 18.82H23.96V27.6H22.52V18.82ZM22.36 9.14L23.8 9.7C23.5067 10.18 23.1933 10.68 22.86 11.2C22.5267 11.72 22.1867 12.2267 21.84 12.72C21.5067 13.2 21.1867 13.62 20.88 13.98L19.84 13.5C20.12 13.1133 20.4133 12.6667 20.72 12.16C21.04 11.6533 21.34 11.1333 21.62 10.6C21.9133 10.0667 22.16 9.58 22.36 9.14ZM25.08 11.44L26.5 12.06C25.9667 12.8333 25.3733 13.6533 24.72 14.52C24.08 15.3733 23.4267 16.2 22.76 17C22.1067 17.7867 21.4867 18.48 20.9 19.08L19.82 18.48C20.26 18.0267 20.72 17.5133 21.2 16.94C21.68 16.3533 22.1533 15.74 22.62 15.1C23.1 14.46 23.5467 13.8267 23.96 13.2C24.3867 12.5733 24.76 11.9867 25.08 11.44ZM18.62 13.22L19.38 12.26C19.82 12.58 20.2667 12.9467 20.72 13.36C21.1733 13.7733 21.5933 14.18 21.98 14.58C22.3667 14.98 22.6733 15.34 22.9 15.66L22.12 16.8C21.88 16.4667 21.5667 16.0867 21.18 15.66C20.7933 15.2333 20.38 14.8133 19.94 14.4C19.5 13.9733 19.06 13.58 18.62 13.22ZM24.52 15.98L25.66 15.42C26.0333 15.8733 26.3933 16.36 26.74 16.88C27.0867 17.4 27.4 17.9133 27.68 18.42C27.96 18.9133 28.1733 19.3667 28.32 19.78L27.1 20.42C26.9667 20.02 26.7667 19.5667 26.5 19.06C26.2333 18.54 25.9267 18.0133 25.58 17.48C25.2333 16.9467 24.88 16.4467 24.52 15.98ZM18.7 18.12C19.38 18.0933 20.16 18.0667 21.04 18.04C21.9333 18.0133 22.88 17.98 23.88 17.94C24.88 17.8867 25.8867 17.8333 26.9 17.78L26.88 19.14C25.44 19.22 24.0133 19.3 22.6 19.38C21.1867 19.4467 19.9467 19.5067 18.88 19.56L18.7 18.12ZM24.8 21.2L26.04 20.74C26.3467 21.2333 26.6467 21.7667 26.94 22.34C27.2467 22.9133 27.5267 23.4733 27.78 24.02C28.0333 24.5667 28.2267 25.0533 28.36 25.48L27.04 26.02C26.9067 25.5933 26.72 25.1 26.48 24.54C26.2533 23.98 25.9933 23.4067 25.7 22.82C25.4067 22.2333 25.1067 21.6933 24.8 21.2ZM20.16 20.84L21.56 21.12C21.32 22.0667 21.0067 22.98 20.62 23.86C20.2467 24.7267 19.84 25.4667 19.4 26.08C19.3067 26 19.18 25.92 19.02 25.84C18.86 25.76 18.7 25.6867 18.54 25.62C18.38 25.54 18.2333 25.48 18.1 25.44C18.58 24.8533 18.9933 24.1533 19.34 23.34C19.6867 22.5267 19.96 21.6933 20.16 20.84ZM13.6 18.78H15V27.6H13.6V18.78ZM13.34 9.16L14.78 9.72C14.4867 10.1867 14.1733 10.6867 13.84 11.22C13.52 11.74 13.1933 12.24 12.86 12.72C12.54 13.2 12.2333 13.62 11.94 13.98L10.9 13.52C11.18 13.1333 11.4733 12.6867 11.78 12.18C12.0867 11.6733 12.3733 11.1533 12.64 10.62C12.92 10.0867 13.1533 9.6 13.34 9.16ZM15.86 11.4L17.24 12.02C16.7467 12.78 16.1933 13.5867 15.58 14.44C14.98 15.28 14.3667 16.0933 13.74 16.88C13.1267 17.6667 12.54 18.3533 11.98 18.94L10.98 18.36C11.38 17.9067 11.8 17.3933 12.24 16.82C12.6933 16.2467 13.14 15.6467 13.58 15.02C14.02 14.3933 14.4333 13.7667 14.82 13.14C15.2067 12.5133 15.5533 11.9333 15.86 11.4ZM9.76 13.34L10.48 12.34C10.9067 12.66 11.3333 13.02 11.76 13.42C12.2 13.8067 12.6067 14.2 12.98 14.6C13.3533 14.9867 13.6467 15.34 13.86 15.66L13.08 16.84C12.8667 16.5067 12.5733 16.1333 12.2 15.72C11.84 15.3067 11.44 14.8933 11 14.48C10.5733 14.0533 10.16 13.6733 9.76 13.34ZM15.4 16.16L16.54 15.62C16.8333 16.06 17.12 16.5333 17.4 17.04C17.6933 17.5467 17.9533 18.04 18.18 18.52C18.4067 19 18.5733 19.4267 18.68 19.8L17.48 20.44C17.36 20.0533 17.1933 19.6133 16.98 19.12C16.7667 18.6267 16.52 18.12 16.24 17.6C15.96 17.08 15.68 16.6 15.4 16.16ZM9.74 18.1C10.3933 18.0867 11.1333 18.0733 11.96 18.06C12.8 18.0333 13.6933 18.0067 14.64 17.98C15.5867 17.9533 16.54 17.9267 17.5 17.9L17.46 19.22C16.1 19.2867 14.7533 19.3467 13.42 19.4C12.0867 19.44 10.9067 19.4733 9.88 19.5L9.74 18.1ZM15.84 21.12L17.02 20.7C17.3267 21.2333 17.62 21.8133 17.9 22.44C18.18 23.0667 18.3867 23.6067 18.52 24.06L17.24 24.54C17.12 24.0867 16.92 23.54 16.64 22.9C16.3733 22.2467 16.1067 21.6533 15.84 21.12ZM11.18 20.68L12.54 20.9C12.3933 21.8733 12.1733 22.8133 11.88 23.72C11.6 24.6133 11.2667 25.3733 10.88 26C10.7867 25.9467 10.66 25.8867 10.5 25.82C10.34 25.74 10.18 25.6667 10.02 25.6C9.86 25.5333 9.71333 25.48 9.58 25.44C9.99333 24.84 10.3267 24.12 10.58 23.28C10.8333 22.44 11.0333 21.5733 11.18 20.68Z" fill="#FFE1E1"/>
<path d="M48.816 9.192V13.272H55.368V9.192H48.816ZM47.256 7.68H57.024V14.784H47.256V7.68ZM49.368 1.8H54.912V3.336H49.368V1.8ZM48.264 3.336L49.944 3.744C49.576 4.848 49.072 5.904 48.432 6.912C47.792 7.92 47.112 8.768 46.392 9.456C46.312 9.344 46.192 9.216 46.032 9.072C45.872 8.912 45.704 8.76 45.528 8.616C45.368 8.456 45.224 8.328 45.096 8.232C45.784 7.64 46.408 6.92 46.968 6.072C47.528 5.208 47.96 4.296 48.264 3.336ZM53.664 1.8H55.512C55.72 2.616 56.016 3.408 56.4 4.176C56.784 4.944 57.216 5.648 57.696 6.288C58.192 6.912 58.704 7.424 59.232 7.824C59.104 7.936 58.96 8.072 58.8 8.232C58.656 8.392 58.512 8.56 58.368 8.736C58.224 8.912 58.096 9.072 57.984 9.216C57.152 8.464 56.384 7.504 55.68 6.336C54.976 5.168 54.44 3.944 54.072 2.664H53.664V1.8ZM49.104 14.496H50.76C50.696 15.568 50.56 16.544 50.352 17.424C50.16 18.304 49.872 19.096 49.488 19.8C49.104 20.488 48.568 21.088 47.88 21.6C47.192 22.128 46.328 22.568 45.288 22.92C45.208 22.728 45.064 22.496 44.856 22.224C44.664 21.968 44.48 21.768 44.304 21.624C45.568 21.208 46.528 20.68 47.184 20.04C47.84 19.4 48.304 18.624 48.576 17.712C48.864 16.784 49.04 15.712 49.104 14.496ZM52.776 14.352H54.432V20.544C54.432 20.832 54.472 21.016 54.552 21.096C54.632 21.176 54.816 21.216 55.104 21.216C55.2 21.216 55.376 21.216 55.632 21.216C55.888 21.216 56.152 21.216 56.424 21.216C56.696 21.216 56.888 21.216 57 21.216C57.192 21.216 57.336 21.144 57.432 21C57.528 20.872 57.6 20.6 57.648 20.184C57.696 19.752 57.728 19.112 57.744 18.264C57.856 18.344 58 18.432 58.176 18.528C58.352 18.608 58.536 18.688 58.728 18.768C58.936 18.832 59.112 18.888 59.256 18.936C59.208 19.96 59.112 20.752 58.968 21.312C58.824 21.872 58.608 22.256 58.32 22.464C58.048 22.672 57.664 22.776 57.168 22.776C57.072 22.776 56.92 22.776 56.712 22.776C56.504 22.776 56.272 22.776 56.016 22.776C55.76 22.776 55.528 22.776 55.32 22.776C55.112 22.776 54.968 22.776 54.888 22.776C54.312 22.776 53.872 22.712 53.568 22.584C53.264 22.456 53.056 22.232 52.944 21.912C52.832 21.592 52.776 21.144 52.776 20.568V14.352ZM40.776 1.128H42.288V6.168H40.776V1.128ZM38.568 5.16H45.432V13.896H38.568V12.384H44.064V6.672H38.568V5.16ZM37.68 5.16H39.048V15.048H37.68V5.16ZM40.872 5.784H42.144V13.032H42.264V19.248H40.752V13.032H40.872V5.784ZM36.84 19.248C37.88 19.104 39.128 18.912 40.584 18.672C42.04 18.416 43.528 18.16 45.048 17.904L45.144 19.416C43.736 19.688 42.328 19.96 40.92 20.232C39.512 20.488 38.256 20.72 37.152 20.928L36.84 19.248ZM43.536 15.408L44.856 15C45.112 15.544 45.344 16.128 45.552 16.752C45.76 17.376 45.936 17.984 46.08 18.576C46.24 19.168 46.352 19.704 46.416 20.184L45 20.616C44.952 20.136 44.856 19.6 44.712 19.008C44.568 18.4 44.392 17.784 44.184 17.16C43.992 16.536 43.776 15.952 43.536 15.408ZM61.152 7.608C62.048 7.608 63.08 7.6 64.248 7.584C65.432 7.552 66.664 7.528 67.944 7.512L67.92 8.712C66.72 8.76 65.552 8.808 64.416 8.856C63.28 8.904 62.24 8.952 61.296 9L61.152 7.608ZM61.464 3.936L62.304 3C62.8 3.384 63.312 3.824 63.84 4.32C64.368 4.8 64.768 5.224 65.04 5.592L64.2 6.696C63.928 6.296 63.528 5.84 63 5.328C62.488 4.8 61.976 4.336 61.464 3.936ZM65.928 6.408L66.96 5.856C67.344 6.304 67.736 6.808 68.136 7.368C68.536 7.912 68.832 8.392 69.024 8.808L67.968 9.432C67.792 9.016 67.504 8.528 67.104 7.968C66.72 7.392 66.328 6.872 65.928 6.408ZM66.24 10.224L67.368 9.816C67.624 10.216 67.864 10.664 68.088 11.16C68.328 11.656 68.496 12.08 68.592 12.432L67.44 12.936C67.344 12.568 67.184 12.128 66.96 11.616C66.736 11.104 66.496 10.64 66.24 10.224ZM64.488 0.816L65.784 1.344C65.432 1.904 65.056 2.464 64.656 3.024C64.256 3.584 63.88 4.072 63.528 4.488L62.52 4.008C62.744 3.72 62.976 3.392 63.216 3.024C63.472 2.64 63.712 2.256 63.936 1.872C64.16 1.472 64.344 1.12 64.488 0.816ZM66.408 2.88L67.704 3.528C67.256 4.088 66.768 4.672 66.24 5.28C65.712 5.872 65.184 6.448 64.656 7.008C64.128 7.568 63.632 8.064 63.168 8.496L62.208 7.92C62.672 7.488 63.16 6.984 63.672 6.408C64.2 5.816 64.704 5.208 65.184 4.584C65.664 3.96 66.072 3.392 66.408 2.88ZM64.32 8.04H65.736V14.52H64.32V8.04ZM62.4 9.864L63.744 10.176C63.584 10.88 63.36 11.6 63.072 12.336C62.8 13.056 62.504 13.672 62.184 14.184C62.056 14.088 61.864 13.968 61.608 13.824C61.368 13.68 61.16 13.568 60.984 13.488C61.32 12.992 61.6 12.432 61.824 11.808C62.064 11.168 62.256 10.52 62.4 9.864ZM74.784 7.608C75.68 7.608 76.728 7.6 77.928 7.584C79.144 7.552 80.416 7.528 81.744 7.512L81.696 8.712C80.48 8.76 79.288 8.808 78.12 8.856C76.952 8.904 75.896 8.952 74.952 9L74.784 7.608ZM75.12 4.128L75.936 3.168C76.432 3.52 76.944 3.928 77.472 4.392C78 4.84 78.408 5.232 78.696 5.568L77.856 6.696C77.568 6.328 77.16 5.904 76.632 5.424C76.12 4.928 75.616 4.496 75.12 4.128ZM79.632 6.312L80.64 5.712C81.104 6.208 81.576 6.752 82.056 7.344C82.536 7.936 82.888 8.456 83.112 8.904L82.032 9.6C81.824 9.136 81.48 8.6 81 7.992C80.536 7.368 80.08 6.808 79.632 6.312ZM80.16 10.32L81.288 9.84C81.656 10.368 82.008 10.952 82.344 11.592C82.68 12.216 82.92 12.752 83.064 13.2L81.864 13.776C81.736 13.328 81.504 12.776 81.168 12.12C80.848 11.448 80.512 10.848 80.16 10.32ZM78.144 0.816L79.464 1.344C79.096 1.904 78.704 2.472 78.288 3.048C77.872 3.608 77.488 4.088 77.136 4.488L76.104 4.008C76.344 3.72 76.592 3.392 76.848 3.024C77.104 2.64 77.344 2.256 77.568 1.872C77.808 1.472 78 1.12 78.144 0.816ZM80.328 2.688L81.624 3.36C81.144 3.92 80.624 4.512 80.064 5.136C79.52 5.76 78.968 6.36 78.408 6.936C77.848 7.496 77.32 7.992 76.824 8.424L75.864 7.848C76.344 7.4 76.864 6.88 77.424 6.288C77.984 5.68 78.512 5.064 79.008 4.44C79.52 3.8 79.96 3.216 80.328 2.688ZM78.048 8.04H79.464V14.52H78.048V8.04ZM76.032 9.888L77.352 10.176C77.176 10.864 76.952 11.544 76.68 12.216C76.424 12.872 76.128 13.448 75.792 13.944C75.664 13.848 75.48 13.736 75.24 13.608C75 13.48 74.792 13.384 74.616 13.32C74.952 12.856 75.24 12.328 75.48 11.736C75.72 11.128 75.904 10.512 76.032 9.888ZM69.288 1.488H74.448V2.544H69.288V1.488ZM69.24 5.712H74.496V6.744H69.24V5.712ZM66.648 15.144H82.2V16.608H66.648V15.144ZM69.24 7.752H74.496V8.808H69.24V7.752ZM68.28 3.528H75.24V4.68H68.28V3.528ZM76.896 15.576L78.648 16.128C77.848 17.2 76.848 18.128 75.648 18.912C74.448 19.696 73.104 20.352 71.616 20.88C70.144 21.392 68.576 21.816 66.912 22.152C65.264 22.504 63.584 22.792 61.872 23.016C61.824 22.872 61.744 22.704 61.632 22.512C61.536 22.32 61.424 22.128 61.296 21.936C61.184 21.744 61.072 21.584 60.96 21.456C62.656 21.296 64.312 21.072 65.928 20.784C67.544 20.496 69.056 20.12 70.464 19.656C71.888 19.192 73.152 18.632 74.256 17.976C75.36 17.304 76.24 16.504 76.896 15.576ZM68.184 13.008L69.816 13.488C69.32 14.336 68.688 15.12 67.92 15.84C67.168 16.56 66.344 17.216 65.448 17.808C64.568 18.384 63.672 18.888 62.76 19.32C62.68 19.208 62.56 19.072 62.4 18.912C62.256 18.752 62.104 18.6 61.944 18.456C61.784 18.296 61.632 18.168 61.488 18.072C62.4 17.72 63.28 17.288 64.128 16.776C64.976 16.264 65.752 15.688 66.456 15.048C67.176 14.408 67.752 13.728 68.184 13.008ZM66.912 16.224C67.696 16.944 68.672 17.6 69.84 18.192C71.024 18.768 72.328 19.272 73.752 19.704C75.192 20.136 76.712 20.496 78.312 20.784C79.912 21.072 81.528 21.288 83.16 21.432C82.984 21.624 82.8 21.872 82.608 22.176C82.432 22.48 82.288 22.744 82.176 22.968C80.544 22.792 78.92 22.536 77.304 22.2C75.688 21.864 74.152 21.448 72.696 20.952C71.24 20.456 69.896 19.872 68.664 19.2C67.432 18.528 66.376 17.768 65.496 16.92L66.912 16.224ZM70.512 10.92V12.672H73.2V10.92H70.512ZM69.192 9.888H74.544V13.728H69.192V9.888Z" fill="#F20F25"/>
<path d="M57.2975 33.31H59.6375V33.8425H57.2975V33.31ZM56.99 28.51H59.93V34.2925H59.3675V29.0425H57.53V34.4125H56.99V28.51ZM53.33 29.23H56.1125V29.7775H53.33V29.23ZM54.5975 27.6925L55.1525 27.76C55.0675 28.135 54.9725 28.535 54.8675 28.96C54.7675 29.385 54.6625 29.815 54.5525 30.25C54.4475 30.68 54.34 31.0925 54.23 31.4875C54.125 31.8775 54.0275 32.2275 53.9375 32.5375L53.4575 32.305C53.5475 32.02 53.6425 31.6875 53.7425 31.3075C53.8475 30.9275 53.95 30.5275 54.05 30.1075C54.155 29.6875 54.255 29.27 54.35 28.855C54.445 28.44 54.5275 28.0525 54.5975 27.6925ZM53.7125 32.02L54.02 31.615C54.265 31.74 54.515 31.88 54.77 32.035C55.03 32.19 55.28 32.3525 55.52 32.5225C55.765 32.6925 55.9875 32.8625 56.1875 33.0325C56.3925 33.2025 56.56 33.365 56.69 33.52L56.3525 33.9925C56.2225 33.8375 56.0575 33.675 55.8575 33.505C55.6625 33.33 55.445 33.155 55.205 32.98C54.965 32.8 54.7175 32.63 54.4625 32.47C54.2075 32.305 53.9575 32.155 53.7125 32.02ZM55.955 29.23H56.0525L56.15 29.2225L56.5025 29.29C56.4225 30.295 56.2675 31.145 56.0375 31.84C55.8075 32.535 55.5025 33.105 55.1225 33.55C54.7475 33.99 54.2975 34.3425 53.7725 34.6075C53.7375 34.5375 53.6875 34.4575 53.6225 34.3675C53.5575 34.2775 53.495 34.2025 53.435 34.1425C53.91 33.9325 54.3225 33.6225 54.6725 33.2125C55.0275 32.8025 55.3125 32.28 55.5275 31.645C55.7425 31.005 55.885 30.24 55.955 29.35V29.23ZM62.9975 28.93H63.425V29.7325H62.9975V28.93ZM62.465 31.12V31.4875H66.1025V31.12H62.465ZM62.465 30.4225V30.7825H66.1025V30.4225H62.465ZM61.955 30.07H66.635V31.84H61.955V30.07ZM61.4525 27.9175H64.0175V28.2775H61.8875V28.945H61.4525V27.9175ZM60.9275 28.7575H64.1V29.1325H60.9275V28.7575ZM62.615 28.105H63.08C63.02 28.465 62.92 28.7975 62.78 29.1025C62.645 29.4025 62.445 29.6675 62.18 29.8975C61.92 30.1275 61.565 30.32 61.115 30.475C61.095 30.42 61.0575 30.36 61.0025 30.295C60.9525 30.23 60.9025 30.1775 60.8525 30.1375C61.2675 30.0075 61.5925 29.8425 61.8275 29.6425C62.0675 29.4425 62.2475 29.2125 62.3675 28.9525C62.4875 28.6875 62.57 28.405 62.615 28.105ZM62.6825 29.6275C62.8825 29.6125 63.11 29.5925 63.365 29.5675C63.62 29.5375 63.89 29.51 64.175 29.485L64.19 29.815C63.945 29.85 63.7025 29.885 63.4625 29.92C63.2275 29.95 63 29.9775 62.78 30.0025L62.6825 29.6275ZM64.64 27.9175H67.295V28.2775H65.09V28.9525H64.64V27.9175ZM64.295 28.7575H67.5575V29.1325H64.295V28.7575ZM65.8025 28.105H66.2525C66.2025 28.455 66.115 28.765 65.99 29.035C65.87 29.305 65.685 29.535 65.435 29.725C65.19 29.91 64.8525 30.065 64.4225 30.19C64.3975 30.135 64.36 30.075 64.31 30.01C64.26 29.94 64.2125 29.885 64.1675 29.845C64.5575 29.745 64.8625 29.615 65.0825 29.455C65.3075 29.295 65.4725 29.105 65.5775 28.885C65.6875 28.66 65.7625 28.4 65.8025 28.105ZM65.99 28.96H66.425V29.53C66.425 29.59 66.4325 29.6275 66.4475 29.6425C66.4675 29.6575 66.51 29.665 66.575 29.665C66.595 29.665 66.6325 29.665 66.6875 29.665C66.7425 29.665 66.7975 29.665 66.8525 29.665C66.9075 29.665 66.9475 29.665 66.9725 29.665C67.0375 29.665 67.08 29.6425 67.1 29.5975C67.12 29.5525 67.1325 29.44 67.1375 29.26C67.1825 29.295 67.24 29.325 67.31 29.35C67.385 29.375 67.455 29.395 67.52 29.41C67.5 29.665 67.455 29.8375 67.385 29.9275C67.315 30.0125 67.2 30.055 67.04 30.055C67.015 30.055 66.965 30.055 66.89 30.055C66.815 30.055 66.74 30.055 66.665 30.055C66.595 30.055 66.5475 30.055 66.5225 30.055C66.3825 30.055 66.2725 30.04 66.1925 30.01C66.1125 29.98 66.0575 29.9275 66.0275 29.8525C66.0025 29.7775 65.99 29.67 65.99 29.53V28.96ZM61.5725 32.53V33.1H63.485V32.53H61.5725ZM61.145 32.1775H63.92V33.4525H61.145V32.1775ZM62.285 31.8025H62.735V34.27H62.285V31.8025ZM60.8225 34.045C61.0775 34.035 61.365 34.0225 61.685 34.0075C62.01 33.9975 62.355 33.985 62.72 33.97C63.085 33.95 63.4525 33.9325 63.8225 33.9175L63.8075 34.3C63.2775 34.335 62.755 34.3675 62.24 34.3975C61.725 34.4325 61.2675 34.4625 60.8675 34.4875L60.8225 34.045ZM64.91 32.53V33.1H66.8975V32.53H64.91ZM64.475 32.1775H67.3475V33.4525H64.475V32.1775ZM65.6525 31.8025H66.11V34.255H65.6525V31.8025ZM64.28 34.045C64.53 34.03 64.8175 34.015 65.1425 34C65.4725 33.99 65.8225 33.9775 66.1925 33.9625C66.5625 33.9425 66.9325 33.925 67.3025 33.91L67.295 34.285C66.765 34.325 66.24 34.36 65.72 34.39C65.2 34.425 64.74 34.455 64.34 34.48L64.28 34.045ZM66.56 33.595L66.935 33.4075C67.09 33.5675 67.2425 33.7425 67.3925 33.9325C67.5475 34.1225 67.665 34.29 67.745 34.435L67.34 34.6525C67.27 34.5075 67.16 34.335 67.01 34.135C66.86 33.935 66.71 33.755 66.56 33.595ZM63.2375 33.6025L63.605 33.4525C63.725 33.5975 63.845 33.7625 63.965 33.9475C64.085 34.1325 64.1725 34.295 64.2275 34.435L63.8375 34.6075C63.7825 34.4675 63.6975 34.3025 63.5825 34.1125C63.4675 33.9275 63.3525 33.7575 63.2375 33.6025ZM68.42 28.3375H75.1025V28.8325H68.42V28.3375ZM70.205 27.7H70.76V29.44H70.205V27.7ZM71.495 29.7625H71.93V34.555H71.495V29.7625ZM72.8825 30.1975H73.25V31.135H72.8825V30.1975ZM72.71 27.7H73.265V29.44H72.71V27.7ZM68.795 29.5825H74.4725V30.04H69.275V34.5775H68.795V29.5825ZM74.2475 29.5825H74.735V34.06C74.735 34.18 74.72 34.275 74.69 34.345C74.665 34.415 74.6125 34.4725 74.5325 34.5175C74.4525 34.5525 74.35 34.575 74.225 34.585C74.1 34.595 73.945 34.6 73.76 34.6C73.75 34.54 73.73 34.465 73.7 34.375C73.675 34.29 73.645 34.2175 73.61 34.1575C73.735 34.1625 73.8475 34.165 73.9475 34.165C74.0475 34.165 74.115 34.165 74.15 34.165C74.215 34.16 74.2475 34.125 74.2475 34.06V29.5825ZM70.2125 32.1775H70.5725V34.3075H70.2125V32.1775ZM70.6625 31.69L70.9475 31.57C71.0525 31.71 71.15 31.865 71.24 32.035C71.33 32.205 71.395 32.3525 71.435 32.4775L71.135 32.62C71.095 32.49 71.03 32.34 70.94 32.17C70.855 31.995 70.7625 31.835 70.6625 31.69ZM73.49 32.8975L73.7675 32.8525C73.8375 33.0375 73.8975 33.2375 73.9475 33.4525C73.9975 33.6625 74.025 33.84 74.03 33.985L73.73 34.045C73.73 33.895 73.705 33.7125 73.655 33.4975C73.61 33.2775 73.555 33.0775 73.49 32.8975ZM69.4025 31.0075L69.605 30.76C69.745 30.865 69.89 30.985 70.04 31.12C70.19 31.255 70.305 31.375 70.385 31.48L70.1825 31.78C70.1025 31.67 69.9875 31.5425 69.8375 31.3975C69.6925 31.2525 69.5475 31.1225 69.4025 31.0075ZM70.7225 32.7625L71 32.68C71.085 32.845 71.16 33.0225 71.225 33.2125C71.295 33.4025 71.34 33.565 71.36 33.7L71.06 33.805C71.04 33.665 70.9975 33.4975 70.9325 33.3025C70.8675 33.1075 70.7975 32.9275 70.7225 32.7625ZM70.6925 30.64L71.0375 30.7975C70.8775 31.0475 70.705 31.3125 70.52 31.5925C70.335 31.8675 70.1575 32.1 69.9875 32.29L69.725 32.155C69.835 32.02 69.95 31.865 70.07 31.69C70.19 31.51 70.305 31.33 70.415 31.15C70.53 30.965 70.6225 30.795 70.6925 30.64ZM70.1525 30.115L70.505 30.25C70.41 30.415 70.3125 30.58 70.2125 30.745C70.1175 30.91 70.025 31.055 69.935 31.18L69.6575 31.0525C69.7425 30.9225 69.8325 30.7675 69.9275 30.5875C70.0225 30.4075 70.0975 30.25 70.1525 30.115ZM69.4025 32.0875C69.6325 32.0775 69.8975 32.0675 70.1975 32.0575C70.4975 32.0475 70.815 32.035 71.15 32.02L71.1425 32.35C70.8325 32.37 70.5325 32.3875 70.2425 32.4025C69.9525 32.4175 69.685 32.43 69.44 32.44L69.4025 32.0875ZM72.095 33.5725C72.325 33.5475 72.5875 33.52 72.8825 33.49C73.1775 33.455 73.4875 33.42 73.8125 33.385L73.82 33.715C73.52 33.755 73.23 33.795 72.95 33.835C72.67 33.875 72.4075 33.9125 72.1625 33.9475L72.095 33.5725ZM69.71 32.68L70.0475 32.7475C70.0025 32.9775 69.945 33.21 69.875 33.445C69.81 33.68 69.7325 33.88 69.6425 34.045C69.6125 34.02 69.565 33.99 69.5 33.955C69.44 33.92 69.3875 33.8925 69.3425 33.8725C69.4375 33.7075 69.5125 33.5225 69.5675 33.3175C69.6275 33.1075 69.675 32.895 69.71 32.68ZM72.56 31.2625V32.335H73.5875V31.2625H72.56ZM72.2675 30.94H73.8875V32.6575H72.2675V30.94ZM72.9275 31.03H73.2125V32.515H73.25V33.6625H72.89V32.515H72.9275V31.03ZM79.79 28H81.4625V28.495H79.79V28ZM79.1375 30.9775H81.8975V31.4875H79.1375V30.9775ZM81.2075 28H81.725V29.7325C81.725 29.8025 81.725 29.86 81.725 29.905C81.73 29.945 81.74 29.97 81.755 29.98C81.78 30 81.82 30.01 81.875 30.01C81.9 30.01 81.9325 30.01 81.9725 30.01C82.0175 30.01 82.055 30.01 82.085 30.01C82.12 30.01 82.1525 30.0075 82.1825 30.0025C82.2125 29.9975 82.235 29.99 82.25 29.98C82.285 29.96 82.31 29.91 82.325 29.83C82.33 29.775 82.335 29.695 82.34 29.59C82.345 29.485 82.35 29.36 82.355 29.215C82.405 29.255 82.47 29.2975 82.55 29.3425C82.63 29.3825 82.705 29.4125 82.775 29.4325C82.77 29.5675 82.76 29.7075 82.745 29.8525C82.735 29.9925 82.7175 30.09 82.6925 30.145C82.6525 30.26 82.5825 30.34 82.4825 30.385C82.4375 30.41 82.3825 30.4275 82.3175 30.4375C82.2575 30.4475 82.1975 30.4525 82.1375 30.4525C82.0875 30.4525 82.02 30.4525 81.935 30.4525C81.855 30.4525 81.7975 30.4525 81.7625 30.4525C81.6925 30.4525 81.62 30.4425 81.545 30.4225C81.47 30.4025 81.405 30.37 81.35 30.325C81.3 30.28 81.2625 30.215 81.2375 30.13C81.2175 30.045 81.2075 29.9 81.2075 29.695V28ZM81.8 30.9775H81.905L82.0025 30.9625L82.355 31.0825C82.195 31.7225 81.9525 32.275 81.6275 32.74C81.3025 33.2 80.9225 33.585 80.4875 33.895C80.0525 34.2 79.585 34.44 79.085 34.615C79.05 34.54 79.0025 34.455 78.9425 34.36C78.8825 34.27 78.825 34.1975 78.77 34.1425C79.235 34.0025 79.67 33.795 80.075 33.52C80.485 33.24 80.84 32.8975 81.14 32.4925C81.445 32.0825 81.665 31.61 81.8 31.075V30.9775ZM79.88 31.4725C80.04 31.8975 80.2575 32.29 80.5325 32.65C80.8075 33.005 81.1375 33.31 81.5225 33.565C81.9075 33.815 82.3375 34.005 82.8125 34.135C82.7525 34.19 82.6875 34.2625 82.6175 34.3525C82.5525 34.4475 82.5 34.53 82.46 34.6C81.965 34.45 81.52 34.2325 81.125 33.9475C80.735 33.6625 80.3975 33.32 80.1125 32.92C79.8275 32.52 79.5975 32.075 79.4225 31.585L79.88 31.4725ZM79.5425 28H80.045V28.9825C80.045 29.1775 80.025 29.3825 79.985 29.5975C79.95 29.8125 79.88 30.0225 79.775 30.2275C79.675 30.4325 79.5225 30.6175 79.3175 30.7825C79.2925 30.7475 79.255 30.7075 79.205 30.6625C79.155 30.6175 79.1025 30.575 79.0475 30.535C78.9975 30.495 78.9525 30.465 78.9125 30.445C79.1025 30.3 79.24 30.145 79.325 29.98C79.415 29.815 79.4725 29.645 79.4975 29.47C79.5275 29.295 79.5425 29.1275 79.5425 28.9675V28ZM77.225 31.6675H77.6V33.4375H77.225V31.6675ZM76.55 28.735H78.275V29.1925H76.55V28.735ZM78.125 28.735H78.5975V34.0225C78.5975 34.1575 78.58 34.2625 78.545 34.3375C78.515 34.4125 78.46 34.4725 78.38 34.5175C78.29 34.5525 78.175 34.575 78.035 34.585C77.895 34.595 77.7175 34.6 77.5025 34.6C77.4925 34.54 77.47 34.465 77.435 34.375C77.405 34.285 77.375 34.2075 77.345 34.1425C77.5 34.1475 77.6375 34.15 77.7575 34.15C77.8825 34.15 77.965 34.1475 78.005 34.1425C78.085 34.1425 78.125 34.1025 78.125 34.0225V28.735ZM76.3175 28.735H76.775V31.4575C76.775 31.6975 76.7675 31.9575 76.7525 32.2375C76.7375 32.5125 76.71 32.7925 76.67 33.0775C76.63 33.3575 76.5675 33.6275 76.4825 33.8875C76.4025 34.1475 76.295 34.385 76.16 34.6C76.13 34.57 76.09 34.5375 76.04 34.5025C75.995 34.4725 75.945 34.4425 75.89 34.4125C75.84 34.3825 75.795 34.3575 75.755 34.3375C75.93 34.0675 76.055 33.7675 76.13 33.4375C76.21 33.1025 76.26 32.765 76.28 32.425C76.305 32.08 76.3175 31.7575 76.3175 31.4575V28.735ZM75.77 31.1275C76.035 31.1025 76.3375 31.075 76.6775 31.045C77.0225 31.01 77.3875 30.9725 77.7725 30.9325C78.1625 30.8875 78.5525 30.8425 78.9425 30.7975L78.95 31.255C78.575 31.3 78.2 31.3425 77.825 31.3825C77.45 31.4225 77.09 31.4625 76.745 31.5025C76.405 31.5375 76.1 31.5725 75.83 31.6075L75.77 31.1275ZM77.045 29.6425L77.3975 29.5C77.5025 29.655 77.595 29.8275 77.675 30.0175C77.755 30.2025 77.8075 30.365 77.8325 30.505L77.45 30.6625C77.425 30.5225 77.375 30.3575 77.3 30.1675C77.225 29.9775 77.14 29.8025 77.045 29.6425ZM77.2475 27.7L77.8475 27.82C77.7775 28.025 77.7 28.23 77.615 28.435C77.535 28.64 77.4625 28.815 77.3975 28.96L76.9325 28.84C76.9925 28.68 77.0525 28.4925 77.1125 28.2775C77.1725 28.0575 77.2175 27.865 77.2475 27.7Z" fill="#500B10"/>
</g>
<defs>
<clipPath id="clip0_1_2">
<rect width="85" height="37" fill="white"/>
</clipPath>
</defs>
</svg>
